<svg width="2077" height="2077" fill="none" xmlns="http://www.w3.org/2000/svg"><path fill-rule="evenodd" clip-rule="evenodd" d="M45.5 722.5v632h632v-632h-632zm632-45v-632h-632v632h632zm0-677H.5v2076h2076V.5h-1399zm45 45v632h632v-632h-632zm677 0v632h632v-632h-632zm-45 677h-632v632h632v-632zm45 0h632v632h-632v-632zm-1354 677v632h632v-632h-632zm677 0v632h632v-632h-632zm677 0h632v632h-632v-632z" fill="url(#prefix__paint0_linear_49_23)"/><defs><linearGradient id="prefix__paint0_linear_49_23" x1="700" y1="361.5" x2="1377" y2="361.5" gradientUnits="userSpaceOnUse"><stop stop-color="#AF71B3"/><stop offset="1" stop-color="#6362A8"/></linearGradient></defs></svg>